HIERARCHY
ROOT Hips
{
	OFFSET 0.000000 71.427986 0.000000
	CHANNELS 6 Xposition Yposition Zposition Xrotation Yrotation Zrotation
	JOINT Pelvis
	{
		OFFSET 0.000000 0.000000 0.000000
		CHANNELS 3 Xrotation Yrotation Zrotation
		JOINT LeftUpLeg
		{
			OFFSET 6.797100 -2.508499 -1.318700
			CHANNELS 3 Xrotation Yrotation Zrotation
			JOINT LeftLeg
			{
				OFFSET 0.069008 -29.241863 0.690200
				CHANNELS 3 Xrotation Yrotation Zrotation
				JOINT LeftFoot
				{
					OFFSET -0.069008 -29.568123 -0.266800
					CHANNELS 3 Xrotation Yrotation Zrotation
					JOINT LeftToeBase
					{
						OFFSET 3.145500 -8.631000 16.059900
						CHANNELS 3 Xrotation Yrotation Zrotation
						End Site
						{
							OFFSET 0.000000 18.501587 0.000000
						}
					}
				}
			}
			JOINT Left_ShortSleeve
			{
				OFFSET 0.265923 -10.480953 1.153800
				CHANNELS 3 Xrotation Yrotation Zrotation
				End Site
				{
					OFFSET 1.725763 19.823879 0.000000
				}
			}
		}
		JOINT RightUpLeg
		{
			OFFSET -6.797100 -2.508499 -1.318700
			CHANNELS 3 Xrotation Yrotation Zrotation
			JOINT RightLeg
			{
				OFFSET -0.082453 -29.241932 0.688000
				CHANNELS 3 Xrotation Yrotation Zrotation
				JOINT RightFoot
				{
					OFFSET 0.082453 -29.568058 -0.264600
					CHANNELS 3 Xrotation Yrotation Zrotation
					JOINT RightToeBase
					{
						OFFSET -3.115300 -8.682800 16.113400
						CHANNELS 3 Xrotation Yrotation Zrotation
						End Site
						{
							OFFSET 0.000000 18.567114 0.000000
						}
					}
				}
			}
			JOINT Right_ShortSleeve
			{
				OFFSET -0.265923 -10.480953 1.153800
				CHANNELS 3 Xrotation Yrotation Zrotation
				End Site
				{
					OFFSET -1.725766 19.823910 0.000000
				}
			}
		}
	}
	JOINT Spine
	{
		OFFSET 0.000000 13.368103 0.470500
		CHANNELS 3 Xrotation Yrotation Zrotation
		JOINT Spine1
		{
			OFFSET 0.147000 13.837402 0.538800
			CHANNELS 3 Xrotation Yrotation Zrotation
			JOINT Spine2
			{
				OFFSET 0.168000 16.242897 -1.435500
				CHANNELS 3 Xrotation Yrotation Zrotation
				JOINT Neck
				{
					OFFSET 0.217200 18.631500 -1.679100
					CHANNELS 3 Xrotation Yrotation Zrotation
					JOINT Head
					{
						OFFSET 0.000000 6.599396 1.385900
						CHANNELS 3 Xrotation Yrotation Zrotation
						JOINT Hat
						{
							OFFSET -0.532200 27.220596 -10.096100
							CHANNELS 3 Xrotation Yrotation Zrotation
							End Site
							{
								OFFSET 0.000000 22.029861 0.000000
							}
						}
						JOINT HairD
						{
							OFFSET -10.777400 17.437393 -1.325900
							CHANNELS 3 Xrotation Yrotation Zrotation
							JOINT HairD1
							{
								OFFSET -3.290299 -11.051193 1.062200
								CHANNELS 3 Xrotation Yrotation Zrotation
								End Site
								{
									OFFSET 0.000000 11.579437 0.000000
								}
							}
						}
						JOINT HairB
						{
							OFFSET -10.777400 17.437393 1.467900
							CHANNELS 3 Xrotation Yrotation Zrotation
							JOINT HairB1
							{
								OFFSET -1.561200 -12.956299 3.590200
								CHANNELS 3 Xrotation Yrotation Zrotation
								End Site
								{
									OFFSET 0.000000 13.534866 0.000000
								}
							}
						}
						JOINT HairA
						{
							OFFSET 9.713100 17.437393 1.467900
							CHANNELS 3 Xrotation Yrotation Zrotation
							JOINT HairA1
							{
								OFFSET 1.561200 -12.956299 3.590200
								CHANNELS 3 Xrotation Yrotation Zrotation
								End Site
								{
									OFFSET 0.000000 13.534866 0.000000
								}
							}
						}
						JOINT HairC
						{
							OFFSET 9.713100 17.437393 -1.325900
							CHANNELS 3 Xrotation Yrotation Zrotation
							JOINT HairC1
							{
								OFFSET 3.290300 -11.051193 1.062200
								CHANNELS 3 Xrotation Yrotation Zrotation
								End Site
								{
									OFFSET 0.000000 11.579437 0.000000
								}
							}
						}
					}
				}
				JOINT LeftShoulder
				{
					OFFSET 5.101800 15.108002 -2.763700
					CHANNELS 3 Xrotation Yrotation Zrotation
					JOINT LeftArm
					{
						OFFSET 9.825497 2.506317 -1.597400
						CHANNELS 3 Xrotation Yrotation Zrotation
						JOINT LeftForeArm
						{
							OFFSET 21.966244 0.000000 0.000000
							CHANNELS 3 Xrotation Yrotation Zrotation
							JOINT LeftHand
							{
								OFFSET 33.879036 0.000000 0.000000
								CHANNELS 3 Xrotation Yrotation Zrotation
								JOINT LeftHandThumb1
								{
									OFFSET 6.715286 -2.359680 3.363841
									CHANNELS 3 Xrotation Yrotation Zrotation
									JOINT LeftHandThumb2
									{
										OFFSET 2.507072 -1.447464 1.447461
										CHANNELS 3 Xrotation Yrotation Zrotation
										JOINT LeftHandThumb3
										{
											OFFSET 2.898338 -1.673355 1.673357
											CHANNELS 3 Xrotation Yrotation Zrotation
											End Site
											{
												OFFSET -0.295959 3.727692 -0.131651
											}
										}
									}
								}
								JOINT LeftHandIndex1
								{
									OFFSET 14.190811 -0.254547 3.840278
									CHANNELS 3 Xrotation Yrotation Zrotation
									JOINT LeftHandIndex2
									{
										OFFSET 3.551727 0.000000 -0.000000
										CHANNELS 3 Xrotation Yrotation Zrotation
										JOINT LeftHandIndex3
										{
											OFFSET 2.894196 0.000000 0.000000
											CHANNELS 3 Xrotation Yrotation Zrotation
											End Site
											{
												OFFSET -1.000603 2.690872 0.366626
											}
										}
									}
								}
								JOINT LeftHandMiddle1
								{
									OFFSET 13.776489 0.000000 0.000000
									CHANNELS 3 Xrotation Yrotation Zrotation
									JOINT LeftHandMiddle2
									{
										OFFSET 3.438232 0.000000 0.000000
										CHANNELS 3 Xrotation Yrotation Zrotation
										JOINT LeftHandMiddle3
										{
											OFFSET 3.691551 0.000000 0.000000
											CHANNELS 3 Xrotation Yrotation Zrotation
											End Site
											{
												OFFSET -1.082298 3.499527 0.457670
											}
										}
									}
								}
								JOINT LeftHandRing1
								{
									OFFSET 13.966164 -0.268127 -3.067488
									CHANNELS 3 Xrotation Yrotation Zrotation
									JOINT LeftHandRing2
									{
										OFFSET 3.162567 0.000000 0.000000
										CHANNELS 3 Xrotation Yrotation Zrotation
										JOINT LeftHandRing3
										{
											OFFSET 3.324348 0.000000 0.000000
											CHANNELS 3 Xrotation Yrotation Zrotation
											End Site
											{
												OFFSET -0.861900 3.184998 0.405154
											}
										}
									}
								}
								JOINT LeftHandPinky1
								{
									OFFSET 13.131393 -0.168503 -5.746925
									CHANNELS 3 Xrotation Yrotation Zrotation
									JOINT LeftHandPinky2
									{
										OFFSET 2.849182 0.000000 0.000000
										CHANNELS 3 Xrotation Yrotation Zrotation
										JOINT LeftHandPinky3
										{
											OFFSET 2.805038 0.000000 0.000000
											CHANNELS 3 Xrotation Yrotation Zrotation
											End Site
											{
												OFFSET -0.882500 2.642609 0.325652
											}
										}
									}
								}
							}
							JOINT Left_Sleeve
							{
								OFFSET 6.592125 -0.646545 0.805568
								CHANNELS 3 Xrotation Yrotation Zrotation
								End Site
								{
									OFFSET -0.000179 20.275787 -0.000000
								}
							}
						}
					}
				}
				JOINT RightShoulder
				{
					OFFSET -5.731700 15.108002 -2.763700
					CHANNELS 3 Xrotation Yrotation Zrotation
					JOINT RightArm
					{
						OFFSET -9.825497 2.506317 -1.597400
						CHANNELS 3 Xrotation Yrotation Zrotation
						JOINT RightForeArm
						{
							OFFSET -21.966242 0.000000 0.000000
							CHANNELS 3 Xrotation Yrotation Zrotation
							JOINT RightHand
							{
								OFFSET -33.879032 0.000000 0.000000
								CHANNELS 3 Xrotation Yrotation Zrotation
								JOINT RightHandThumb1
								{
									OFFSET -6.715286 -2.359680 3.363841
									CHANNELS 3 Xrotation Yrotation Zrotation
									JOINT RightHandThumb2
									{
										OFFSET -2.507072 -1.447464 1.447461
										CHANNELS 3 Xrotation Yrotation Zrotation
										JOINT RightHandThumb3
										{
											OFFSET -2.898338 -1.673355 1.673357
											CHANNELS 3 Xrotation Yrotation Zrotation
											End Site
											{
												OFFSET 0.295959 3.727692 -0.131651
											}
										}
									}
								}
								JOINT RightHandIndex1
								{
									OFFSET -14.190811 -0.254547 3.840278
									CHANNELS 3 Xrotation Yrotation Zrotation
									JOINT RightHandIndex2
									{
										OFFSET -3.551727 0.000000 -0.000000
										CHANNELS 3 Xrotation Yrotation Zrotation
										JOINT RightHandIndex3
										{
											OFFSET -2.894196 0.000000 0.000000
											CHANNELS 3 Xrotation Yrotation Zrotation
											End Site
											{
												OFFSET 1.000603 2.690872 0.366626
											}
										}
									}
								}
								JOINT RightHandMiddle1
								{
									OFFSET -13.776489 0.000000 0.000000
									CHANNELS 3 Xrotation Yrotation Zrotation
									JOINT RightHandMiddle2
									{
										OFFSET -3.438232 0.000000 0.000000
										CHANNELS 3 Xrotation Yrotation Zrotation
										JOINT RightHandMiddle3
										{
											OFFSET -3.691551 0.000000 0.000000
											CHANNELS 3 Xrotation Yrotation Zrotation
											End Site
											{
												OFFSET 1.082298 3.499527 0.457670
											}
										}
									}
								}
								JOINT RightHandRing1
								{
									OFFSET -13.966164 -0.268127 -3.067488
									CHANNELS 3 Xrotation Yrotation Zrotation
									JOINT RightHandRing2
									{
										OFFSET -3.162567 0.000000 0.000000
										CHANNELS 3 Xrotation Yrotation Zrotation
										JOINT RightHandRing3
										{
											OFFSET -3.324348 0.000000 0.000000
											CHANNELS 3 Xrotation Yrotation Zrotation
											End Site
											{
												OFFSET 0.861900 3.184998 0.405154
											}
										}
									}
								}
								JOINT RightHandPinky1
								{
									OFFSET -13.131393 -0.168503 -5.746925
									CHANNELS 3 Xrotation Yrotation Zrotation
									JOINT RightHandPinky2
									{
										OFFSET -2.849182 0.000000 0.000000
										CHANNELS 3 Xrotation Yrotation Zrotation
										JOINT RightHandPinky3
										{
											OFFSET -2.805038 0.000000 0.000000
											CHANNELS 3 Xrotation Yrotation Zrotation
											End Site
											{
												OFFSET 0.882500 2.642609 0.325652
											}
										}
									}
								}
							}
							JOINT Right_Sleeve
							{
								OFFSET -6.592125 -0.646545 0.805568
								CHANNELS 3 Xrotation Yrotation Zrotation
								End Site
								{
									OFFSET 0.000179 20.275787 -0.000000
								}
							}
						}
					}
				}
				JOINT Bind_Right_JacketString
				{
					OFFSET -3.534800 11.969597 7.200700
					CHANNELS 3 Xrotation Yrotation Zrotation
					JOINT Bind_Right_JacketString1
					{
						OFFSET -0.319900 -6.102600 2.794100
						CHANNELS 3 Xrotation Yrotation Zrotation
						End Site
						{
							OFFSET 0.000000 6.719452 0.000000
						}
					}
				}
				JOINT Bind_Left_JacketString
				{
					OFFSET 2.904800 11.969597 7.200700
					CHANNELS 3 Xrotation Yrotation Zrotation
					JOINT Bind_Left_JacketString1
					{
						OFFSET 0.364800 -5.904503 3.186800
						CHANNELS 3 Xrotation Yrotation Zrotation
						End Site
						{
							OFFSET 0.000000 6.719513 0.000000
						}
					}
				}
				JOINT HairE
				{
					OFFSET 5.915200 17.612701 -11.592200
					CHANNELS 3 Xrotation Yrotation Zrotation
					JOINT HairE1
					{
						OFFSET 0.289200 -7.171898 -1.284500
						CHANNELS 3 Xrotation Yrotation Zrotation
						End Site
						{
							OFFSET 0.000000 7.291756 0.000000
						}
					}
				}
				JOINT HairF
				{
					OFFSET -0.864800 17.612701 -11.592200
					CHANNELS 3 Xrotation Yrotation Zrotation
					JOINT HairF1
					{
						OFFSET 0.000000 -14.087097 -2.127501
						CHANNELS 3 Xrotation Yrotation Zrotation
						End Site
						{
							OFFSET 0.000000 14.246841 0.000000
						}
					}
				}
				JOINT HairG
				{
					OFFSET -8.087700 17.612701 -11.592200
					CHANNELS 3 Xrotation Yrotation Zrotation
					JOINT HairG1
					{
						OFFSET -0.293600 -6.081398 -0.910100
						CHANNELS 3 Xrotation Yrotation Zrotation
						End Site
						{
							OFFSET 0.000000 6.156120 0.000000
						}
					}
				}
			}
		}
	}
	JOINT Pouch
	{
		OFFSET 0.000000 4.394501 10.847300
		CHANNELS 3 Xrotation Yrotation Zrotation
		End Site
		{
			OFFSET 0.000000 21.880577 0.000000
		}
	}
	JOINT Bag
	{
		OFFSET -13.229000 4.813004 -0.593300
		CHANNELS 3 Xrotation Yrotation Zrotation
		End Site
		{
			OFFSET 0.000000 21.880577 0.000000
		}
	}
	JOINT OccupyGuyFacialAnim_Joint
	{
		OFFSET 1.000000 -70.206398 -1.655000
		CHANNELS 3 Xrotation Yrotation Zrotation
		End Site
		{
			OFFSET 0.000000 21.880577 0.000000
		}
	}
}
MOTION
Frames: 4
Frame Time: 0.016667
-3.270632 64.160515 5.904948 -7.693021 22.968861 7.704433 0.000000 -0.000000 -0.000000 -17.678107 -12.586506 5.883218 45.338441 -0.953957 0.289064 -23.125999 -5.029539 -15.167946 -0.000000 0.000001 -0.000000 0.000002 -0.000001 -0.000000 -15.309570 -29.262822 -24.101048 53.486522 0.201444 -0.310933 -35.724027 -4.525131 8.327345 -0.000000 -0.000000 0.000000 0.000001 0.000002 0.000000 19.081563 1.148944 1.382792 5.234400 1.638212 -0.510232 5.225530 1.690295 -0.516649 -17.295335 -9.726849 -7.669279 -20.599084 -12.220330 0.353306 0.000001 0.000000 -0.000000 0.000001 0.000000 -0.000000 0.000001 0.000000 0.000000 0.000001 0.000000 0.000000 0.000002 0.000000 0.000000 0.000001 0.000000 0.000000 0.000002 0.000000 0.000000 0.000001 0.000000 -0.000000 0.000001 0.000000 -0.000000 -0.697450 -12.691492 -24.679613 -13.018059 -5.162528 -28.488921 51.978771 -46.839661 7.482882 4.023840 -22.781642 14.370756 11.432757 11.898679 2.278028 0.907279 24.171850 -3.294983 0.000002 -0.000001 -0.000002 -4.825732 9.288218 -23.825204 3.434088 9.250148 -40.028419 0.000006 0.000001 -0.000002 -11.628066 16.087812 -27.374732 11.222076 9.790864 -61.810350 0.000004 0.000004 0.000003 -8.924434 18.188741 -48.130769 11.602474 5.110942 -60.456368 -0.000001 0.000002 -0.000002 -5.365017 8.158744 -54.955733 9.871764 -13.977184 -74.788420 -0.000001 0.000001 -0.000001 -0.000001 0.000001 0.000002 6.242217 -2.614799 -11.084384 -35.911372 -11.573015 -6.604742 -129.166104 14.300496 149.579326 18.373696 2.814412 -8.754316 -10.063584 -12.114440 -5.432844 -8.224832 -5.483064 5.365292 0.000002 -0.000002 0.000000 4.411662 -5.661992 62.206289 9.270930 -12.376232 79.811758 -0.000001 0.000001 0.000002 -5.517166 -19.375259 62.311440 15.444362 -10.143913 85.739932 0.000001 -0.000002 0.000001 -7.692941 -21.405972 73.131225 13.187948 -6.413958 74.081898 0.000002 -0.000001 -0.000002 -6.411608 -22.996147 83.381652 9.054135 13.497753 82.144745 -0.000001 0.000002 0.000004 -0.000002 0.000000 -0.000001 -0.000000 -0.000001 -0.000000 0.000001 0.000001 0.000000 -0.000000 -0.000001 0.000000 -0.000000 -0.000001 0.000000 -0.000000 -0.000001 -0.000000 0.000001 0.000001 -0.000000 -0.000000 -0.000001 0.000000 -0.000000 -0.000001 0.000000 -0.000000 -0.000001 -0.000000 0.000001 0.000001 -0.000000 0.000000 -0.000000 -0.000000 0.000000 -0.000000 -0.000000 0.000000 -0.000000 -0.000000 
-3.427424 64.237793 6.289312 -7.925229 24.668751 7.660086 -0.000000 0.000000 -0.000000 -17.324056 -14.362351 5.889159 44.776842 -0.986925 0.284018 -23.034386 -4.974817 -15.479553 0.000000 -0.000000 0.000000 0.000001 -0.000000 -0.000000 -14.195046 -31.066897 -23.604135 52.587856 0.207574 -0.297134 -35.910515 -4.917170 8.234418 -0.000000 0.000000 0.000000 0.000001 -0.000000 0.000000 18.996672 1.039515 1.432645 5.096427 1.511981 -0.476951 5.088405 1.550685 -0.475985 -18.172866 -7.374424 -11.412605 -20.891286 -12.073568 1.777838 0.000000 -0.000000 -0.000000 0.000000 -0.000000 -0.000000 0.000000 -0.000000 0.000000 0.000000 -0.000000 -0.000000 0.000002 -0.000000 -0.000000 0.000000 -0.000000 -0.000000 0.000002 -0.000000 -0.000000 0.000000 -0.000000 -0.000000 0.000000 -0.000000 -0.000000 -0.787867 -12.075481 -26.714946 -11.942306 -3.432186 -26.261536 55.390870 -49.285166 10.889110 5.145018 -22.468988 14.527689 11.432754 11.898683 2.278048 1.501915 25.466692 -3.312478 -0.000000 0.000001 -0.000003 -3.794601 7.957289 -23.971121 4.254772 10.064912 -46.827695 0.000003 0.000001 -0.000002 -11.756376 14.887304 -29.374198 11.904648 9.966828 -65.739594 0.000004 0.000002 -0.000001 -9.476053 18.032201 -49.017792 11.714530 5.347367 -61.842869 -0.000003 0.000002 -0.000001 -6.800932 9.633159 -56.189002 9.701536 -13.949380 -75.709403 -0.000001 0.000002 -0.000000 -0.000000 -0.000000 -0.000000 7.717162 -7.373778 -5.050556 -43.972167 -21.360512 -11.904045 -118.831303 10.484322 148.086479 21.961614 11.633973 -14.248330 -10.063582 -12.114466 -5.432861 -8.226143 -5.485135 5.369680 -0.000001 -0.000001 0.000003 2.105030 -3.843930 56.888639 9.938169 -12.409256 83.561170 -0.000002 -0.000000 0.000004 -5.678343 -19.240267 61.807311 15.499940 -10.129638 85.942617 -0.000000 0.000002 -0.000002 -7.133090 -21.873397 74.675592 13.186720 -6.412991 74.079986 -0.000002 -0.000002 -0.000003 -5.396357 -23.712738 86.009089 9.042680 13.516143 81.894747 0.000001 0.000000 -0.000005 0.000001 0.000001 0.000003 0.000002 0.000000 0.000001 0.000001 0.000002 -0.000000 0.000002 0.000000 0.000001 0.000002 0.000000 0.000001 0.000002 0.000000 0.000001 0.000001 0.000002 -0.000000 0.000002 0.000000 0.000001 0.000002 0.000000 0.000001 0.000002 0.000000 0.000001 0.000001 0.000002 -0.000000 -0.000000 0.000000 -0.000000 -0.000000 0.000000 -0.000000 -0.000000 0.000000 -0.000000 
-3.515341 64.332947 6.678100 -8.074142 26.781534 7.965456 0.000000 0.000001 -0.000001 -17.160973 -16.418718 5.359774 43.980517 -1.022084 0.276135 -22.783027 -4.870691 -15.720802 0.000000 -0.000000 -0.000000 -0.000001 -0.000001 -0.000000 -13.366067 -33.057463 -23.584358 51.638375 0.232395 -0.282203 -36.081615 -5.435910 8.225991 -0.000000 -0.000000 -0.000000 0.000000 -0.000000 0.000000 19.002983 0.635231 1.556606 5.119967 0.756772 -0.529777 5.119971 0.792231 -0.531184 -18.019887 -6.128812 -11.431356 -23.168534 -10.769681 0.960114 -0.000002 -0.000001 -0.000000 -0.000002 -0.000001 -0.000000 -0.000002 -0.000001 -0.000000 -0.000002 -0.000001 -0.000000 0.000000 0.000001 0.000000 -0.000002 -0.000001 -0.000000 0.000000 0.000001 0.000000 -0.000002 -0.000001 -0.000000 -0.000002 -0.000001 -0.000000 -0.786551 -12.473179 -26.068153 -9.832099 0.874615 -25.954336 55.683722 -52.355746 13.970384 5.154070 -22.384075 15.753905 11.432765 11.898682 2.278022 2.008814 26.268605 -3.133979 -0.000000 -0.000000 -0.000001 -2.251137 6.806042 -25.190443 5.503144 11.025372 -56.130303 0.000004 -0.000001 -0.000004 -11.459817 14.203342 -33.122640 12.927619 10.135821 -71.691919 -0.000000 0.000007 0.000002 -10.290446 17.678172 -51.680988 12.170166 5.710943 -65.667590 0.000001 -0.000001 -0.000004 -9.073660 11.365285 -57.531537 9.481993 -13.836156 -77.686729 0.000001 -0.000001 0.000001 0.000001 0.000001 -0.000001 8.148607 -9.861666 -1.653014 -54.292433 -30.007815 -14.466136 -110.199911 8.391173 146.424803 18.072109 15.336288 -13.285900 -10.063567 -12.114459 -5.432863 -8.227440 -5.487223 5.374026 -0.000001 0.000000 0.000004 1.196550 -3.158887 56.657280 10.312564 -12.414075 85.657703 -0.000002 0.000000 0.000002 -5.742767 -19.186654 61.604003 15.602918 -10.102552 86.317424 0.000001 0.000000 -0.000001 -6.814864 -22.127489 75.537685 13.249233 -6.405623 74.350584 -0.000002 -0.000001 -0.000003 -4.320086 -24.385643 88.689842 9.030324 13.536125 81.623021 0.000001 0.000001 -0.000001 0.000000 -0.000002 0.000001 0.000001 0.000001 -0.000000 0.000001 0.000000 0.000001 0.000001 0.000001 0.000000 0.000001 0.000001 0.000000 0.000001 0.000001 -0.000000 0.000001 0.000000 0.000000 0.000001 0.000001 0.000000 0.000001 0.000001 0.000000 0.000001 0.000001 -0.000000 0.000001 0.000000 0.000000 0.000000 0.000001 -0.000001 0.000000 0.000001 -0.000001 0.000000 0.000001 -0.000001 
-3.597010 64.438499 6.990008 -8.025861 28.659959 8.210621 0.000000 -0.000000 -0.000000 -17.166569 -18.255236 4.845964 43.097835 -1.076732 0.266728 -22.432698 -4.703012 -15.918745 -0.000000 0.000000 0.000000 -0.000001 0.000001 -0.000001 -12.837247 -34.779269 -23.556546 50.726254 0.246138 -0.268614 -36.145511 -5.906790 8.201176 -0.000000 -0.000000 -0.000000 0.000001 -0.000001 -0.000001 19.014948 0.095711 1.699621 5.137553 -0.395267 -0.742506 5.145105 -0.355846 -0.748202 -17.870377 -5.140440 -11.214733 -24.990206 -9.168326 -0.055151 -0.000001 0.000001 0.000001 -0.000001 0.000001 0.000001 -0.000001 0.000001 0.000001 -0.000001 0.000001 0.000000 0.000001 -0.000000 -0.000000 -0.000001 0.000001 0.000000 0.000001 -0.000000 -0.000000 -0.000001 0.000001 0.000001 -0.000001 0.000001 0.000001 -0.729884 -12.936525 -24.594034 -7.448413 5.738895 -26.622701 53.665852 -55.184090 15.413754 5.030926 -22.352315 16.946784 11.432740 11.898684 2.278060 2.417376 26.741172 -2.824131 0.000001 0.000001 -0.000002 -0.680618 5.686696 -26.936057 6.891997 11.728958 -65.387812 -0.000000 -0.000003 -0.000001 -11.129753 13.721702 -37.247497 13.953054 10.245303 -77.699317 0.000000 0.000001 0.000001 -11.165317 17.079376 -55.081104 12.723733 6.059004 -69.966866 0.000002 0.000000 0.000000 -11.557515 12.642538 -58.779638 9.272224 -13.696375 -79.792701 -0.000002 -0.000000 0.000001 0.000002 -0.000001 0.000001 8.112592 -11.609561 1.893599 -67.056181 -34.147602 -17.067570 -102.494215 5.567633 145.072357 10.148201 17.432297 -8.852095 -10.063573 -12.114460 -5.432846 -8.228738 -5.489379 5.378380 -0.000001 -0.000001 0.000004 0.713246 -2.871473 56.761327 10.462511 -12.409604 86.501224 0.000003 -0.000001 0.000000 -5.871308 -19.074762 61.194076 15.711433 -10.073249 86.712557 -0.000002 -0.000003 -0.000001 -6.700060 -22.214789 75.840802 13.352714 -6.393770 74.797825 0.000000 -0.000003 0.000000 -3.692219 -24.744705 90.215707 9.019894 13.553464 81.391259 -0.000000 0.000004 -0.000001 0.000000 0.000004 -0.000001 0.000001 -0.000001 -0.000000 0.000001 -0.000001 -0.000000 0.000001 -0.000001 -0.000000 0.000001 -0.000001 -0.000000 0.000001 -0.000001 -0.000000 0.000001 -0.000001 -0.000000 0.000001 -0.000001 -0.000000 0.000001 -0.000001 -0.000000 0.000001 -0.000001 -0.000000 0.000001 -0.000001 -0.000000 0.000000 -0.000000 -0.000000 0.000000 -0.000000 -0.000000 0.000000 -0.000000 -0.000000 
